<?xml version="1.0" encoding="iso-8859-1"?>
<!-- Generator: Adobe Illustrator 18.1.1, SVG Export Plug-In . SVG Version: 6.00 Build 0)  -->
<svg version="1.1" width="9px" heigth="9px" id="Capa_1" xmlns="http://www.w3.org/2000/svg" xmlns:xlink="http://www.w3.org/1999/xlink" x="0px" y="0px"
	 viewBox="0 0 22.135 22.135" style="enable-background:new 0 0 22.135 22.135;" xml:space="preserve">
<g>
	<g>
		<path style="fill:#030104;" d="M0,18.723L14.879,3.089c0,0,1.949-2.114,6.341-1.597c0,0,0.753,0.599,0.915,1.755L7.179,19.24
			c0,0-1.236,1.558-6.461,1.438C0.717,20.678,0.2,20.438,0,18.723z"/>
		<path style="fill:#030104;" d="M0,3.412l14.879,15.634c0,0,1.949,2.114,6.341,1.597c0,0,0.753-0.598,0.915-1.758L7.179,2.891
			c0,0-1.236-1.556-6.461-1.436C0.717,1.456,0.2,1.696,0,3.412z"/>
	</g>
</g>
<g>
</g>
<g>
</g>
<g>
</g>
<g>
</g>
<g>
</g>
<g>
</g>
<g>
</g>
<g>
</g>
<g>
</g>
<g>
</g>
<g>
</g>
<g>
</g>
<g>
</g>
<g>
</g>
<g>
</g>
</svg>
